<?xml version="1.0" encoding="UTF-8"?>
<svg width="418px" height="400px" viewBox="0 0 418 400" version="1.1" xmlns="http://www.w3.org/2000/svg" xmlns:xlink="http://www.w3.org/1999/xlink">
    <!-- Generator: Sketch 62 (91390) - https://sketch.com -->
    <title>typing</title>
    <desc>Created with Sketch.</desc>
    <g id="final" stroke="none" stroke-width="1" fill="none" fill-rule="evenodd">
        <g id="Desktop-Copy-4" transform="translate(-15.000000, -184.000000)">
            <g id="typing" transform="translate(15.000000, 184.000000)">
                <g id="keyboard" fill-rule="nonzero">
                    <path d="M417.38112,5.065632 C417.38112,2.285712 414.943776,0 411.984144,0 L5.382936,0 C2.420496,0 0,2.285712 0,5.06844 L0,154.793808 C0,157.573728 2.426112,159.85944 5.385744,159.85944 L411.984144,159.85944 C414.943776,159.85944 417.38112,157.576536 417.38112,154.793808 L417.38112,5.065632 Z" id="Path" fill="#DDDDDD"></path>
                    <g id="Group" transform="translate(9.828000, 13.716000)" fill="#525252">
                        <path d="M23.505768,21.471048 C23.505768,22.19832 22.918896,22.793616 22.194432,22.793616 L2.100384,22.793616 C1.37592,22.793616 0.789048,22.201128 0.789048,21.473856 L0.791856,1.346112 C0.791856,0.616032 1.378728,0.02916 2.106,0.02916 L22.194432,0.02916 C22.916088,0.02916 23.505768,0.616032 23.505768,1.34892 L23.505768,21.471048 Z" id="Path"></path>
                        <path d="M65.142792,49.188816 C65.142792,49.92732 64.561536,50.519808 63.82584,50.5170099 L43.737408,50.5170099 C43.012944,50.5170099 42.42888,49.92732 42.42888,49.188816 L42.42888,29.058264 C42.42888,28.342224 43.012944,27.749736 43.731792,27.749736 L63.823032,27.749736 C64.558728,27.749736 65.139984,28.342224 65.139984,29.058264 L65.139984,49.188816 L65.142792,49.188816 Z" id="Path"></path>
                        <path d="M71.691058,76.920624 C71.693856,77.653512 71.104176,78.229152 70.379712,78.229152 L50.288472,78.229152 C49.578048,78.229152 48.977136,77.653512 48.974328,76.920624 L48.974328,56.781648 C48.974328,56.074032 49.57524,55.475928 50.285664,55.475928 L70.379712,55.47312 C71.104176,55.475928 71.691058,56.074032 71.691058,56.781648 L71.691058,76.920624 Z" id="Path"></path>
                        <path d="M58.148064,104.638392 C58.148064,105.360048 57.558384,105.955344 56.836728,105.955344 L36.748296,105.955344 C36.035064,105.952536 35.442576,105.360048 35.442576,104.638392 L35.442576,84.505032 C35.442576,83.783376 36.035064,83.18808 36.748296,83.18808 L56.836728,83.18808 C57.561192,83.18808 58.148064,83.783376 58.148064,84.505032 L58.148064,104.638392 Z" id="Path"></path>
                        <path d="M23.505768,135.86616 C23.505768,136.590624 22.916088,137.180304 22.194432,137.180304 L2.103192,137.180304 C1.37592,137.180304 0.789048,136.590624 0.791856,135.863352 L0.789048,112.225608 C0.791856,111.515184 1.37592,110.914272 2.103192,110.914272 L22.194432,110.914272 C22.918896,110.914272 23.505768,111.515184 23.505768,112.225608 L23.505768,135.86616 Z" id="Path"></path>
                        <path d="M51.085954,135.86616 C51.088752,136.590624 50.499072,137.180304 49.774608,137.180304 L29.691792,137.180304 C28.970136,137.180304 28.377648,136.590624 28.37484,135.86616 L28.377648,112.225608 C28.377648,111.517992 28.970136,110.914272 29.691792,110.914272 L49.768992,110.914272 C50.499072,110.914272 51.085954,111.517992 51.085954,112.225608 L51.085954,135.86616 Z" id="Path"></path>
                        <path d="M78.682968,135.863352 C78.682968,136.590624 78.09048,137.180304 77.366016,137.180304 L57.280392,137.180304 C56.555928,137.180304 55.969056,136.590624 55.969056,135.86616 L55.969056,112.225608 C55.969056,111.517992 56.55312,110.914272 57.277584,110.914272 L77.368824,110.914272 C78.09048,110.914272 78.682968,111.517992 78.682968,112.225608 L78.682968,135.863352 Z" id="Path"></path>
                        <path d="M314.324712,135.863352 C314.324712,136.590624 313.726608,137.180304 313.002144,137.180304 L292.91652,137.180304 C292.194864,137.180304 291.605184,136.590624 291.605184,135.86616 L291.605184,112.225608 C291.605184,111.515184 292.194864,110.914272 292.91652,110.914272 L313.00776,110.914272 C313.726608,110.914272 314.324712,111.515184 314.324712,112.225608 L314.324712,135.863352 Z" id="Path"></path>
                        <path d="M341.980714,135.863352 C341.983512,136.590624 341.388216,137.180304 340.663752,137.180304 L320.58936,137.180304 C319.853664,137.180304 319.263984,136.590624 319.263984,135.86616 L319.263984,125.353008 C319.263984,124.642584 319.853664,124.04448 320.58936,124.04448 L340.663752,124.04448 C341.391024,124.04448 341.980714,124.642584 341.980714,125.355816 L341.980714,135.863352 Z" id="Path"></path>
                        <path d="M397.30392,135.863352 C397.30392,136.590624 396.717048,137.180304 395.989776,137.180304 L375.904152,137.180304 C375.185304,137.180304 374.5872,136.593432 374.5872,135.863352 L374.5872,125.353008 C374.5872,124.639776 375.182496,124.04448 375.904152,124.04448 L395.989776,124.04448 C396.717048,124.04448 397.30392,124.639776 397.30392,125.355816 L397.30392,135.863352 Z" id="Path"></path>
                        <path d="M113.47128,135.86616 C113.47128,136.590624 112.884408,137.180304 112.168368,137.180304 L84.863376,137.180304 C84.14172,137.180304 83.557656,136.590624 83.557656,135.863352 L83.557656,112.225608 C83.557656,111.517992 84.14172,110.914272 84.863376,110.914272 L112.168368,110.914272 C112.8816,110.914272 113.47128,111.515184 113.47128,112.225608 L113.47128,135.86616 Z" id="Path"></path>
                        <path d="M286.657488,135.86616 C286.657488,136.590624 286.076232,137.180304 285.346152,137.180304 L258.046776,137.180304 C257.333544,137.180304 256.729824,136.590624 256.729824,135.863352 L256.729824,112.225608 C256.729824,111.517992 257.333544,110.914272 258.046776,110.914272 L285.346152,110.914272 C286.076232,110.914272 286.657488,111.515184 286.657488,112.225608 L286.657488,135.86616 Z" id="Path"></path>
                        <path d="M251.790552,135.863352 C251.790552,136.590624 251.195256,137.180304 250.467984,137.180304 L119.73312,137.180304 C119.019888,137.180304 118.41336,136.590624 118.41336,135.86616 L118.41336,112.225608 C118.41336,111.515184 119.01708,110.914272 119.73312,110.914272 L250.470792,110.914272 C251.195256,110.914272 251.790552,111.515184 251.790552,112.225608 L251.790552,135.863352 Z" id="Path"></path>
                        <path d="M85.809672,104.638392 C85.809672,105.360048 85.225608,105.955344 84.503952,105.952536 L64.409904,105.955344 C63.702288,105.955344 63.106992,105.360048 63.106992,104.638392 L63.106992,84.502224 C63.106992,83.783376 63.702288,83.18808 64.412712,83.18808 L84.503952,83.18808 C85.225608,83.18808 85.809672,83.783376 85.809672,84.502224 L85.809672,104.638392 Z" id="Path"></path>
                        <path d="M113.47128,104.638392 C113.47128,105.360048 112.884408,105.955344 112.168368,105.955344 L92.079936,105.955344 C91.352664,105.955344 90.765792,105.360048 90.765792,104.638392 L90.765792,84.502224 C90.765792,83.783376 91.352664,83.18808 92.079936,83.18808 L112.168368,83.18808 C112.8816,83.18808 113.47128,83.783376 113.47128,84.505032 L113.47128,104.638392 Z" id="Path"></path>
                        <path d="M141.135696,104.638392 C141.135696,105.360048 140.551632,105.955344 139.821552,105.952536 L119.735928,105.955344 C119.022696,105.952536 118.416168,105.360048 118.416168,104.638392 L118.416168,84.505032 C118.416168,83.783376 119.022696,83.18808 119.735928,83.18808 L139.821552,83.18808 C140.551632,83.18808 141.138504,83.783376 141.138504,84.502224 L141.135696,104.638392 Z" id="Path"></path>
                        <path d="M168.794496,104.638392 C168.794496,105.360048 168.204816,105.955344 167.488776,105.955344 L147.403152,105.955344 C146.681496,105.955344 146.0862,105.360048 146.0862,104.638392 L146.0862,84.502224 C146.0862,83.783376 146.681496,83.18808 147.403152,83.18808 L167.488776,83.18808 C168.202008,83.18808 168.794496,83.783376 168.794496,84.505032 L168.794496,104.638392 Z" id="Path"></path>
                        <path d="M196.46172,104.638392 C196.46172,105.360048 195.87204,105.952536 195.147576,105.955344 L175.061952,105.955344 C174.340296,105.955344 173.750616,105.360048 173.750616,104.638392 L173.753424,84.502224 C173.750616,83.783376 174.343104,83.18808 175.061952,83.18808 L195.153192,83.18808 C195.869232,83.18808 196.46172,83.783376 196.458912,84.502224 L196.46172,104.638392 Z" id="Path"></path>
                        <path d="M224.123328,104.638392 C224.123328,105.360048 223.536456,105.955344 222.817608,105.952536 L202.720752,105.955344 C201.996288,105.955344 201.409416,105.360048 201.409416,104.638392 L201.409416,84.505032 C201.409416,83.783376 201.996288,83.18808 202.720752,83.18808 L222.817608,83.18808 C223.536456,83.18808 224.123328,83.783376 224.123328,84.502224 L224.123328,104.638392 Z" id="Path"></path>
                        <path d="M251.790552,104.638392 C251.790552,105.360048 251.195256,105.955344 250.467984,105.955344 L230.387976,105.955344 C229.669128,105.952536 229.07664,105.360048 229.07664,104.638392 L229.07664,84.502224 C229.07664,83.783376 229.669128,83.18808 230.387976,83.18808 L250.467984,83.18808 C251.195256,83.18808 251.790552,83.783376 251.790552,84.502224 L251.790552,104.638392 Z" id="Path"></path>
                        <path d="M279.45216,104.638392 C279.45216,105.360048 278.86248,105.955344 278.135208,105.955344 L258.049584,105.955344 C257.336352,105.952536 256.732632,105.360048 256.732632,104.638392 L256.732632,84.502224 C256.732632,83.783376 257.336352,83.18808 258.049584,83.18808 L278.135208,83.18808 C278.86248,83.18808 279.45216,83.783376 279.45216,84.502224 L279.45216,104.638392 Z" id="Path"></path>
                        <path d="M307.11096,104.638392 C307.11096,105.360048 306.529704,105.955344 305.799624,105.952536 L285.708384,105.955344 C284.98392,105.955344 284.397048,105.360048 284.397048,104.638392 L284.397048,84.502224 C284.397048,83.783376 284.98392,83.18808 285.708384,83.18808 L305.796816,83.18808 C306.529704,83.18808 307.11096,83.783376 307.11096,84.505032 L307.11096,104.638392 L307.11096,104.638392 Z" id="Path"></path>
                        <path d="M334.778184,104.638392 C334.778184,105.360048 334.18008,105.952536 333.466848,105.952536 L313.3728,105.955344 C312.651144,105.952536 312.058656,105.360048 312.058656,104.638392 L312.058656,84.502224 C312.058656,83.783376 312.648336,83.18808 313.3728,83.18808 L333.461232,83.18808 C334.18008,83.18808 334.778184,83.783376 334.778184,84.502224 L334.778184,104.638392 L334.778184,104.638392 Z" id="Path"></path>
                        <path d="M397.082088,104.638392 C397.082088,105.360048 396.492408,105.952536 395.770752,105.952536 L341.034408,105.952536 C340.312752,105.952536 339.720264,105.360048 339.720264,104.638392 L339.720264,84.502224 C339.720264,83.783376 340.312752,83.18808 341.034408,83.18808 L395.770752,83.18808 C396.500832,83.18808 397.082088,83.783376 397.082088,84.502224 L397.082088,104.638392 Z" id="Path"></path>
                        <path d="M99.34704,76.917816 C99.34704,77.653512 98.7714,78.229152 98.049744,78.229152 L77.95008,78.229152 C77.23404,78.229152 76.647168,77.653512 76.647168,76.920624 L76.647168,56.781648 C76.647168,56.074032 77.23404,55.475928 77.95008,55.475928 L98.052552,55.475928 C98.777016,55.475928 99.349848,56.071224 99.349848,56.784456 L99.349848,76.917816 L99.34704,76.917816 Z" id="Path"></path>
                        <path d="M127.017072,76.917816 C127.014264,77.653512 126.427392,78.229152 125.702928,78.229152 L105.60888,78.229152 C104.895648,78.229152 104.311584,77.653512 104.311584,76.917816 L104.311584,56.781648 C104.311584,56.071224 104.89284,55.475928 105.60888,55.475928 L125.702928,55.475928 C126.424584,55.475928 127.017072,56.071224 127.014264,56.784456 L127.017072,76.917816 Z" id="Path"></path>
                        <path d="M154.670256,76.917816 C154.670256,77.653512 154.094616,78.229152 153.370152,78.229152 L133.278912,78.229152 C132.557256,78.229152 131.967576,77.653512 131.970374,76.917816 L131.970374,56.784456 C131.970374,56.071224 132.557256,55.475928 133.28172,55.475928 L153.37296,55.475928 C154.097424,55.475928 154.673064,56.071224 154.673064,56.781648 L154.673064,76.917816 L154.670256,76.917816 Z" id="Path"></path>
                        <path d="M182.340288,76.917816 C182.340288,77.650704 181.7478,78.229152 181.037376,78.229152 L160.934904,78.229152 C160.218864,78.229152 159.631992,77.653512 159.631992,76.920624 L159.631992,56.781648 C159.631992,56.074032 160.218864,55.475928 160.934904,55.475928 L181.037376,55.475928 C181.7478,55.475928 182.340288,56.074032 182.340288,56.781648 L182.340288,76.917816 Z" id="Path"></path>
                        <path d="M209.999088,76.917816 C209.999088,77.653512 209.4066,78.229152 208.69056,78.229152 L188.59932,78.229152 C187.891704,78.229152 187.285176,77.653512 187.287974,76.917816 L187.287974,56.781648 C187.287974,56.071224 187.891704,55.47312 188.59932,55.47312 L208.69056,55.475928 C209.4066,55.475928 209.999088,56.071224 209.999088,56.781648 L209.999088,76.917816 Z" id="Path"></path>
                        <path d="M237.666312,76.917816 C237.666312,77.653512 237.071016,78.229152 236.352168,78.229152 L216.269352,78.229152 C215.550504,78.229152 214.960824,77.653512 214.960824,76.917816 L214.960824,56.784456 C214.960824,56.071224 215.550504,55.47312 216.269352,55.475928 L236.352168,55.47312 C237.071016,55.47312 237.666312,56.071224 237.666312,56.781648 L237.666312,76.917816 Z" id="Path"></path>
                        <path d="M265.322304,76.920624 C265.322304,77.653512 264.743856,78.229152 264.013776,78.229152 L243.922536,78.229152 C243.203688,78.229152 242.616816,77.653512 242.619614,76.917816 L242.619614,56.781648 C242.619614,56.071224 243.203688,55.475928 243.922536,55.475928 L264.013776,55.475928 C264.73824,55.475928 265.322304,56.074032 265.322304,56.781648 L265.322304,76.920624 Z" id="Path"></path>
                        <path d="M292.98672,76.917816 C292.989528,77.650704 292.399848,78.229152 291.681,78.229152 L271.586952,78.229152 C270.870912,78.229152 270.281232,77.650704 270.281232,76.920624 L270.281232,56.781648 C270.281232,56.074032 270.870912,55.475928 271.586952,55.475928 L291.681,55.475928 C292.399848,55.475928 292.98672,56.071224 292.989528,56.781648 L292.98672,76.917816 Z" id="Path"></path>
                        <path d="M320.651136,76.917816 C320.648328,77.653512 320.061456,78.229152 319.342608,78.229152 L299.24856,78.229152 C298.51848,78.229152 297.937224,77.650704 297.934416,76.917816 L297.937224,56.781648 C297.934416,56.071224 298.521288,55.47312 299.245752,55.4759182 L319.342608,55.4759182 C320.064264,55.4759182 320.651136,56.071224 320.651136,56.781648 L320.651136,76.917816 L320.651136,76.917816 Z" id="Path"></path>
                        <path d="M348.309936,76.917816 C348.309936,77.650704 347.720256,78.229152 347.001408,78.229152 L326.918592,78.229152 C326.194128,78.229152 325.598832,77.650704 325.598832,76.917816 L325.598832,56.781648 C325.60164,56.071224 326.188512,55.47312 326.918592,55.4759182 L347.001408,55.4759182 C347.720256,55.4759182 348.309936,56.071224 348.309936,56.781648 L348.309936,76.917816 Z" id="Path"></path>
                        <path d="M375.979968,76.917816 C375.979968,77.650704 375.384672,78.229152 374.663016,78.229152 L354.568968,78.229152 C353.85012,78.229152 353.268864,77.650704 353.268864,76.917816 L353.268864,56.781648 C353.27448,56.071224 353.85012,55.47312 354.568968,55.475928 L374.668632,55.47312 C375.384672,55.475928 375.974352,56.071224 375.979968,56.781648 L375.979968,76.917816 Z" id="Path"></path>
                        <path d="M92.801592,49.188816 C92.801592,49.92732 92.21472,50.517 91.487448,50.517 L71.399016,50.517 C70.682976,50.517 70.084872,49.92732 70.084872,49.188816 L70.084872,29.055456 C70.084872,28.342224 70.680168,27.749736 71.399016,27.749736 L91.48464,27.749736 C92.211912,27.749736 92.798784,28.342224 92.798784,29.058264 L92.798784,49.188816 L92.801592,49.188816 Z" id="Path"></path>
                        <path d="M120.4632,49.188816 C120.466008,49.92732 119.87352,50.519808 119.149056,50.5170099 L99.057816,50.5170099 C98.338968,50.5170099 97.752096,49.92732 97.752096,49.188816 L97.752096,29.058264 C97.752096,28.339416 98.338968,27.749736 99.060624,27.749736 L119.149056,27.749736 C119.876328,27.749736 120.466008,28.342224 120.466008,29.058264 L120.466008,49.188816 L120.4632,49.188816 Z" id="Path"></path>
                        <path d="M148.127616,49.188816 C148.127616,49.92732 147.537936,50.517 146.810664,50.517 L126.722232,50.517 C126.011808,50.517 125.422128,49.92732 125.422128,49.188816 L125.422128,29.058264 C125.422128,28.342224 126.011808,27.749736 126.722232,27.749736 L146.813472,27.749736 C147.537936,27.749736 148.127616,28.342224 148.127616,29.058264 L148.127616,49.188816 Z" id="Path"></path>
                        <path d="M175.7808,49.188816 C175.777992,49.92732 175.19112,50.5170099 174.480696,50.5170099 L154.389456,50.5170099 C153.664992,50.519808 153.075312,49.92732 153.075312,49.188816 L153.075312,29.058264 C153.075312,28.342224 153.664992,27.749736 154.389456,27.749736 L174.480696,27.749736 C175.19112,27.749736 175.7808,28.339416 175.7808,29.058264 L175.7808,49.188816 Z" id="Path"></path>
                        <path d="M203.450832,49.188816 C203.450832,49.92732 202.858344,50.517 202.131072,50.517 L182.051064,50.517 C181.329408,50.517 180.739728,49.92732 180.739728,49.188816 L180.739728,29.058264 C180.739728,28.342224 181.3266,27.749736 182.045448,27.749736 L202.131072,27.749736 C202.858344,27.749736 203.450832,28.342224 203.450832,29.058264 L203.450832,49.188816 L203.450832,49.188816 Z" id="Path"></path>
                        <path d="M231.106824,49.188816 C231.106824,49.92732 230.531184,50.517 229.803912,50.517 L209.712672,50.519808 C208.991016,50.517 208.398528,49.92732 208.398528,49.194432 L208.398528,29.058264 C208.398528,28.342224 208.9854,27.755352 209.712672,27.749736 L229.80672,27.749736 C230.531184,27.749736 231.106824,28.342224 231.11244,29.058264 L231.106824,49.188816 Z" id="Path"></path>
                        <path d="M258.77124,49.188816 C258.77124,49.92732 258.192792,50.517 257.462712,50.517 L237.368664,50.517 C236.655432,50.517 236.065752,49.92732 236.065752,49.194432 L236.065752,29.058264 C236.065752,28.342224 236.655432,27.749736 237.371472,27.749736 L257.462712,27.749736 C258.192792,27.749736 258.77124,28.342224 258.768432,29.058264 L258.77124,49.188816 Z" id="Path"></path>
                        <path d="M286.438464,49.188816 C286.438464,49.924512 285.848784,50.517 285.12432,50.517 L265.03308,50.517 C264.314232,50.517 263.724552,49.92732 263.724552,49.194432 L263.724552,29.058264 C263.724552,28.342224 264.308616,27.749736 265.03308,27.749736 L285.12432,27.749736 C285.851592,27.749736 286.435656,28.342224 286.435656,29.058264 L286.438464,49.188816 Z" id="Path"></path>
                        <path d="M314.08884,49.188816 C314.091648,49.92732 313.49916,50.517 312.785928,50.517 L292.700304,50.517 C291.970224,50.517 291.391776,49.92732 291.391776,49.188816 L291.391776,29.058264 C291.391776,28.342224 291.970224,27.749736 292.700304,27.749736 L312.785928,27.749736 C313.49916,27.749736 314.091648,28.342224 314.091648,29.058264 L314.08884,49.188816 Z" id="Path"></path>
                        <path d="M341.756064,49.188816 C341.76168,49.92732 341.169192,50.517 340.44192,50.517 L320.353488,50.517 C319.645872,50.517 319.050576,49.92732 319.047768,49.188816 L319.050576,29.058264 C319.047768,28.339416 319.645872,27.749736 320.353488,27.749736 L340.44192,27.749736 C341.169192,27.749736 341.76168,28.342224 341.76168,29.058264 L341.756064,49.188816 Z" id="Path"></path>
                        <path d="M369.423288,49.188816 C369.423288,49.92732 368.836416,50.517 368.120376,50.517 L348.029136,50.517 C347.296248,50.517 346.712184,49.92732 346.712184,49.188816 L346.712184,29.058264 C346.712184,28.342224 347.296248,27.749736 348.02352,27.749736 L368.120376,27.749736 C368.833608,27.749736 369.423288,28.342224 369.423288,29.058264 L369.423288,49.188816 L369.423288,49.188816 Z" id="Path"></path>
                        <path d="M37.478376,49.194432 C37.478376,49.92732 36.894312,50.5170099 36.169848,50.5170099 L2.106,50.5170099 C1.37592,50.519808 0.789048,49.92732 0.789048,49.188816 L0.789048,29.058264 C0.789048,28.342224 1.37592,27.749736 2.103192,27.755352 L36.16704,27.749736 C36.894312,27.749736 37.478376,28.342224 37.481184,29.058264 L37.478376,49.194432 Z" id="Path"></path>
                        <path d="M397.082088,21.471048 C397.082088,22.19832 396.492408,22.793616 395.770752,22.793616 L361.701288,22.793616 C360.993672,22.793616 360.398376,22.19832 360.398376,21.471048 L360.398376,1.346112 C360.398376,0.616032 360.993672,0.02916 361.701288,0.02916 L395.770752,0.02916 C396.492408,0.02916 397.082088,0.616032 397.082088,1.346112 L397.082088,21.471048 Z" id="Path"></path>
                        <path d="M44.023824,76.920624 C44.023824,77.653512 43.43976,78.229152 42.70968,78.229152 L2.106,78.229152 C1.378728,78.229152 0.789048,77.653512 0.791856,76.917816 L0.789048,56.784456 C0.789048,56.074032 1.37592,55.475928 2.106,55.47312 L42.70968,55.47312 C43.43976,55.475928 44.023824,56.074032 44.023824,56.781648 L44.023824,76.920624 L44.023824,76.920624 Z" id="Path"></path>
                        <path d="M30.49488,104.638392 C30.49488,105.360048 29.902392,105.955344 29.180736,105.952536 L2.103192,105.955344 C1.37592,105.955344 0.789048,105.360048 0.789048,104.638392 L0.791856,84.502224 C0.789048,83.783376 1.37592,83.18808 2.103192,83.18808 L29.177928,83.18808 C29.902392,83.18808 30.49488,83.783376 30.492072,84.502224 L30.49488,104.638392 Z" id="Path"></path>
                        <path d="M51.164568,21.471048 C51.164568,22.19832 50.580504,22.793616 49.850424,22.793616 L29.770416,22.793616 C29.051568,22.793616 28.45908,22.19832 28.45908,21.471048 L28.45908,1.346112 C28.45908,0.616032 29.04876,0.02916 29.773224,0.02916 L49.853232,0.02916 C50.583312,0.02916 51.167376,0.616032 51.167376,1.34892 L51.167376,21.471048 L51.164568,21.471048 Z" id="Path"></path>
                        <path d="M78.828984,21.471048 C78.828984,22.19832 78.242112,22.793616 77.517648,22.793616 L57.4236,22.793616 C56.710368,22.793616 56.120688,22.19832 56.120688,21.471048 L56.120688,1.346112 C56.120688,0.616032 56.710368,0.02916 57.4236,0.02916 L77.517648,0.02916 C78.242112,0.02916 78.828984,0.616032 78.828984,1.346112 L78.828984,21.471048 Z" id="Path"></path>
                        <path d="M106.499016,21.473856 C106.499016,22.201128 105.895296,22.793616 105.17364,22.793616 L85.0824,22.793616 C84.363552,22.793616 83.779488,22.19832 83.779488,21.471048 L83.779488,1.346112 C83.779488,0.616032 84.363552,0.02916 85.0824,0.02916 L105.170832,0.02916 C105.895296,0.02916 106.501824,0.616032 106.501824,1.346112 L106.499016,21.473856 Z" id="Path"></path>
                        <path d="M134.149392,21.473856 C134.149392,22.201128 133.559712,22.793616 132.838056,22.793616 L112.746816,22.793616 C112.030776,22.793616 111.432672,22.201128 111.432672,21.473856 L111.432672,1.346112 C111.432672,0.61884 112.02516,0.02916 112.744008,0.02916 L132.838056,0.02916 C133.56252,0.02916 134.155008,0.616032 134.155008,1.346112 L134.149392,21.473856 Z" id="Path"></path>
                        <path d="M161.802576,21.471048 C161.802576,22.19832 161.224128,22.790808 160.496856,22.793616 L140.405616,22.793616 C139.686768,22.793616 139.097088,22.201128 139.097088,21.473856 L139.097088,1.346112 C139.097088,0.616032 139.68396,0.02916 140.402808,0.02916 L160.496856,0.02916 C161.22132,0.02916 161.799768,0.616032 161.799768,1.346112 L161.799768,21.471048 L161.802576,21.471048 Z" id="Path"></path>
                        <path d="M189.472608,21.473856 C189.472608,22.201128 188.885736,22.793616 188.16408,22.793616 L168.084072,22.793616 C167.3568,22.793616 166.76712,22.19832 166.76712,21.471048 L166.76712,1.346112 C166.76712,0.616032 167.3568,0.02916 168.084072,0.02916 L188.16408,0.02916 C188.885736,0.02916 189.472608,0.61884 189.472608,1.346112 L189.472608,21.473856 Z" id="Path"></path>
                        <path d="M217.1286,21.473856 C217.1286,22.201128 216.55296,22.793616 215.825688,22.793616 L195.734448,22.793616 C195.007176,22.793616 194.420304,22.19832 194.420304,21.471048 L194.420304,1.346112 C194.420304,0.616032 195.007176,0.02916 195.734448,0.02916 L215.820072,0.02916 C216.55296,0.02916 217.1286,0.61884 217.1286,1.346112 L217.1286,21.473856 Z" id="Path"></path>
                        <path d="M244.795824,21.473856 C244.795824,22.201128 244.21176,22.793616 243.48168,22.793616 L223.393248,22.793616 C222.668784,22.793616 222.076296,22.19832 222.076296,21.471048 L222.076296,1.346112 C222.076296,0.616032 222.668784,0.02916 223.393248,0.02916 L243.48168,0.02916 C244.21176,0.02916 244.795824,0.61884 244.798632,1.343304 L244.795824,21.473856 Z" id="Path"></path>
                        <path d="M272.451816,21.46824 C272.451816,22.19832 271.87056,22.793616 271.146096,22.793616 L251.06328,22.793616 C250.3332,22.793616 249.746328,22.201128 249.746328,21.473856 L249.749136,1.346112 C249.749136,0.616032 250.3332,0.02916 251.06328,0.02916 L271.146096,0.02916 C271.87056,0.02916 272.451816,0.616032 272.451816,1.346112 L272.451816,21.46824 Z" id="Path"></path>
                        <path d="M300.121848,21.46824 C300.121848,22.19832 299.532168,22.793616 298.816128,22.793616 L278.72208,22.793616 C278.003232,22.793616 277.413552,22.19832 277.413552,21.471048 L277.41636,1.346112 C277.41636,0.616032 278.003232,0.02916 278.72208,0.02916 L298.816128,0.02916 C299.532168,0.02916 300.121848,0.616032 300.121848,1.346112 L300.121848,21.46824 Z" id="Path"></path>
                        <path d="M327.783456,21.471048 C327.783456,22.19832 327.193776,22.793616 326.469312,22.793616 L306.383688,22.793616 C305.656416,22.793616 305.063928,22.19832 305.063928,21.471048 L305.063928,1.346112 C305.063928,0.616032 305.656416,0.02916 306.383688,0.02916 L326.469312,0.02916 C327.193776,0.02916 327.780648,0.616032 327.783456,1.346112 L327.783456,21.471048 Z" id="Path"></path>
                        <path d="M355.442266,21.471048 C355.442266,22.19832 354.858192,22.793616 354.139344,22.793616 L334.03968,22.793616 C333.32364,22.793616 332.73396,22.19832 332.73396,21.471048 L332.73396,1.346112 C332.73396,0.616032 333.32364,0.02916 334.034064,0.02916 L354.139344,0.02916 C354.858192,0.02916 355.445064,0.616032 355.442266,1.346112 L355.442266,21.471048 Z" id="Path"></path>
                        <g transform="translate(346.788000, 110.916000)" id="Path">
                            <path d="M0.143208,13.8726 L0.143208,24.944544 C0.143208,25.289928 0.269568,25.626888 0.527904,25.8768 C0.780624,26.12952 1.1232,26.261496 1.448928,26.261496 L21.548592,26.261496 C21.882744,26.261496 22.21128,26.12952 22.475232,25.871184 C22.727952,25.626888 22.859928,25.284312 22.859928,24.944544 L22.859928,13.869792 L0.143208,13.8726 Z"></path>
                            <path d="M22.859928,12.38436 L22.859928,1.309608 C22.859928,0.98388 22.727952,0.641304 22.475232,0.388584 C22.214088,0.130248 21.882744,-0.001728 21.5514,-0.001728 L1.451736,-0.001728 C1.1232,-0.001728 0.780624,0.130248 0.527904,0.388584 C0.269568,0.641304 0.143208,0.98388 0.143208,1.309608 L0.143208,12.38436 L22.859928,12.38436 Z"></path>
                        </g>
                        <path d="M375.679512,27.749736 C375.350976,27.749736 375.014016,27.87048 374.75568,28.13724 C374.50296,28.392768 374.379408,28.724112 374.379408,29.061072 L374.379408,49.191624 C374.379408,49.5342 374.50296,49.87116 374.75568,50.132304 C375.014016,50.385024 375.350976,50.519808 375.679512,50.519808 L380.922048,50.519808 L380.922048,76.920624 C380.922048,77.260392 381.05964,77.60016 381.315168,77.847264 C381.570696,78.108408 381.896424,78.23196 382.236192,78.23196 L395.770752,78.23196 C396.11052,78.23196 396.441864,78.108408 396.7002,77.847264 C396.958536,77.60016 397.090512,77.260392 397.090512,76.920624 L397.090512,29.061072 C397.090512,28.72692 396.958536,28.392768 396.7002,28.13724 C396.441864,27.876096 396.11052,27.749736 395.770752,27.749736 L375.679512,27.749736 Z" id="Path"></path>
                    </g>
                </g>
                <g id="hands" transform="translate(52.000000, 80.000000)">
                    <path d="M237.611061,242.154023 C237.611061,242.154023 237.383695,200.847271 237.325096,190.097788 C237.267669,179.349477 230.849857,157.457894 218.951824,145.094582 C203.325695,128.855503 186.856906,111.525301 176.980554,101.277429 C164.05,87.8593274 179.040911,70.10721 194.384591,85.1649247 C210.457248,100.935209 219.86832,118.618179 219.756981,98.66155 C219.646814,78.7060933 219.865976,43.0659078 219.786281,28.5320722 C219.707757,13.9982366 240.156621,15.1491298 240.223425,27.1631891 C240.287884,39.1760763 240.555098,87.6495413 240.571506,90.6006096 C240.587913,93.5516779 245.01686,93.9489822 244.998108,90.5759979 C244.980528,87.2041855 244.654715,28.1921954 244.564472,11.7527057 C244.488293,-2.15645976 265.554795,-3.74802082 265.429392,11.6390228 C265.244218,34.1880911 265.838416,86.2466705 265.867716,91.303803 C265.894672,96.3621076 270.528716,95.9155798 270.504105,91.2791913 C270.478321,86.6416308 270.181808,32.6891172 270.117348,20.6750579 C270.049373,8.6621707 289.648545,8.34456168 289.723552,22.0427691 C289.814967,38.4822588 290.083353,87.3776399 290.104449,90.9592383 C290.1232,94.5443526 293.715347,96.214437 293.686047,90.9404865 C293.657919,85.666536 293.864189,58.9041671 293.778634,43.7292536 C293.702455,29.6782774 314.090375,26.1248068 314.181791,42.7752545 C314.232186,51.8370735 314.42908,87.6647772 314.623335,122.966258 C314.742001,144.780489 302.599023,178.356802 302.670515,191.212349 C302.740834,204.069069 310.527,319.431 310.527,319.431 L237.069,319.431" id="Fill-15" fill="#EDC692"></path>
                    <path d="M77.5907504,242.154023 C77.5907504,242.154023 77.8181163,200.847271 77.8767157,190.097788 C77.9341432,179.349477 84.351955,157.457894 96.2499873,145.094582 C111.876117,128.855503 128.344906,111.525301 138.221257,101.277429 C151.151812,87.8593274 136.160901,70.10721 120.817221,85.1649247 C104.744564,100.935209 95.3334919,118.618179 95.4448308,98.66155 C95.5549978,78.7060933 95.3358359,43.0659078 95.4143591,28.5320722 C95.4940544,13.9982366 75.0451903,15.1491298 74.9783869,27.1631891 C74.9139275,39.1760763 74.6467141,87.6495413 74.6303062,90.6006096 C74.6138984,93.5516779 70.1849519,93.9489822 70.2037038,90.5759979 C70.2212836,87.2041855 70.5470965,28.1921954 70.6373397,11.7527057 C70.713519,-2.15645976 49.6470167,-3.74802082 49.7724195,11.6390228 C49.9575938,34.1880911 49.3633954,86.2466705 49.3340956,91.303803 C49.3071399,96.3621076 44.6730954,95.9155798 44.6977071,91.2791913 C44.7223189,86.6416308 45.0200041,32.6891172 45.0844635,20.6750579 C45.1524389,8.6621707 25.5532668,8.34456168 25.4782595,22.0427691 C25.3868444,38.4822588 25.1184589,87.3776399 25.0973631,90.9592383 C25.0774393,94.5443526 21.486465,96.214437 21.5157647,90.9404865 C21.5438925,85.666536 21.3376224,58.9041671 21.4231776,43.7292536 C21.4993569,29.6782774 1.11143624,26.1248068 1.02002109,42.7752545 C0.969625566,51.8370735 0.772731414,87.6647772 0.578476338,122.966258 C0.459810351,144.780489 12.6027884,178.356802 12.5312971,191.212349 C12.4609777,204.069069 1.113,319.431 1.113,319.431 L77.91,319.431" id="Fill-16" fill="#EDC692"></path>
                    <g id="Group-4" transform="translate(172.537260, 3.717420)" fill="#FFDCB2" fill-opacity="0.7">
                        <path d="M90.934326,7.36641217 C90.934326,3.29805507 87.4362103,0 83.121066,0 C78.8059217,0 75.307806,3.29805507 75.307806,7.36641217 C75.307806,11.4347693 90.934326,11.4347693 90.934326,7.36641217 Z" id="Oval"></path>
                        <path d="M115.415874,19.6071862 C115.415874,15.5388291 111.917758,12.240774 107.602614,12.240774 C103.28747,12.240774 99.789354,15.5388291 99.789354,19.6071862 C99.789354,23.6755433 115.415874,23.6755433 115.415874,19.6071862 Z" id="Oval"></path>
                        <path d="M140.157864,39.4007782 C140.157864,35.3324211 136.659748,32.034366 132.344604,32.034366 C128.02946,32.034366 124.531344,35.3324211 124.531344,39.4007782 C124.531344,43.4691353 140.157864,43.4691353 140.157864,39.4007782 Z" id="Oval"></path>
                        <path d="M65.41101,25.5973522 C65.41101,21.5289951 61.9128943,18.23094 57.59775,18.23094 C53.2826057,18.23094 49.78449,21.5289951 49.78449,25.5973522 C49.78449,29.6657093 65.41101,29.6657093 65.41101,25.5973522 Z" id="Oval"></path>
                        <path d="M17.22924,88.1034322 C17.22924,84.0350751 13.7311243,80.73702 9.41598,80.73702 C5.10083566,80.73702 1.60272,84.0350751 1.60272,88.1034322 C1.60272,92.1717893 17.22924,92.1717893 17.22924,88.1034322 Z" id="Oval" transform="translate(9.415980, 85.945860) rotate(-33.000000) translate(-9.415980, -85.945860) "></path>
                    </g>
                    <g id="Group-5" transform="translate(72.783168, 50.104420) scale(-1, 1) translate(-72.783168, -50.104420) translate(2.283168, 2.604420)" fill="#FFDCB2" fill-opacity="0.7">
                        <path d="M90.934326,7.36641217 C90.934326,3.29805507 87.4362103,0 83.121066,0 C78.8059217,0 75.307806,3.29805507 75.307806,7.36641217 C75.307806,11.4347693 90.934326,11.4347693 90.934326,7.36641217 Z" id="Oval"></path>
                        <path d="M115.415874,19.6071862 C115.415874,15.5388291 111.917758,12.240774 107.602614,12.240774 C103.28747,12.240774 99.789354,15.5388291 99.789354,19.6071862 C99.789354,23.6755433 115.415874,23.6755433 115.415874,19.6071862 Z" id="Oval"></path>
                        <path d="M140.157864,39.4007782 C140.157864,35.3324211 136.659748,32.034366 132.344604,32.034366 C128.02946,32.034366 124.531344,35.3324211 124.531344,39.4007782 C124.531344,43.4691353 140.157864,43.4691353 140.157864,39.4007782 Z" id="Oval"></path>
                        <path d="M65.41101,25.5973522 C65.41101,21.5289951 61.9128943,18.23094 57.59775,18.23094 C53.2826057,18.23094 49.78449,21.5289951 49.78449,25.5973522 C49.78449,29.6657093 65.41101,29.6657093 65.41101,25.5973522 Z" id="Oval"></path>
                        <path d="M17.22924,88.1034322 C17.22924,84.0350751 13.7311243,80.73702 9.41598,80.73702 C5.10083566,80.73702 1.60272,84.0350751 1.60272,88.1034322 C1.60272,92.1717893 17.22924,92.1717893 17.22924,88.1034322 Z" id="Oval" transform="translate(9.415980, 85.945860) rotate(-33.000000) translate(-9.415980, -85.945860) "></path>
                    </g>
                    <g id="appleWatch" transform="translate(236.646060, 195.531840)">
                        <path d="M0,10.41768 C6.47798663,11.0472267 10.8186866,11.0472267 13.0221,10.41768 C15.2255134,9.78813332 16.9617934,8.05185332 18.23094,5.20884 L18.23094,33.85746 C16.49466,30.3849 14.75838,28.64862 13.0221,28.64862 C11.28582,28.64862 6.94512,28.64862 0,28.64862 L0,10.41768 Z" id="Rectangle" fill="#010101"></path>
                        <path d="M52.869726,10.41768 C57.6114326,11.0472267 61.0839926,11.0472267 63.287406,10.41768 C65.4908194,9.78813332 67.2270994,8.05185332 68.496246,5.20884 L68.496246,33.85746 C66.759966,30.3849 65.023686,28.64862 63.287406,28.64862 C61.551126,28.64862 57.818124,28.64862 52.0884,28.64862 L52.869726,10.41768 Z" id="Rectangle" fill="#010101" transform="translate(60.292323, 19.533150) scale(-1, 1) translate(-60.292323, -19.533150) "></path>
                        <path d="M27.34641,0 L29.95083,0 C30.6700207,-1.32113193e-16 31.25304,0.583019276 31.25304,1.30221 L31.25304,1.30221 L31.25304,1.30221 L26.0442,1.30221 C26.0442,0.583019276 26.6272193,1.32113193e-16 27.34641,0 Z" id="Rectangle" stroke="#010101" stroke-width="2.60442"></path>
                        <rect id="Rectangle" stroke="#010101" stroke-width="2.864862" fill="#525252" x="18.23094" y="2.60442" width="33.85746" height="33.85746" rx="5.729724"></rect>
                        <path d="M27.1938735,22.1180369 L27.6430088,21.746907 L27.6430088,17.3649704 C27.4622248,17.2173865 27.2814407,17.1110394 27.1006567,17.0459289 L27.1006567,17.0459289 L23.8041728,17.0459289 C23.7024818,17.0893359 23.6163269,17.1555316 23.5457081,17.2445159 C23.4750894,17.3335003 23.43978,17.4235698 23.43978,17.5147245 L23.43978,17.5147245 L23.43978,21.7208628 C23.5019245,21.8033361 23.5739557,21.8727873 23.6558734,21.9292164 C23.7377912,21.9856455 23.8578431,22.0485856 24.0160291,22.1180369 L24.0160291,22.1180369 L27.1938735,22.1180369 Z M26.8210064,21.4799539 L24.2533082,21.4799539 L24.2533082,17.7165671 L26.8210064,17.7165671 L26.8210064,21.4799539 Z M32.0411454,22.1310589 C32.0750424,22.1310589 32.1117642,22.1288886 32.1513107,22.1245479 C32.1908572,22.1202072 32.2275789,22.1136962 32.2614759,22.1050148 C32.2840739,22.0919927 32.3094967,22.0746299 32.3377442,22.0529264 C32.3659917,22.0312228 32.3914145,22.007349 32.4140125,21.9813048 L32.4140125,21.9813048 L32.4140125,20.4902744 L32.5750233,20.4902744 L32.7953538,20.3860975 C32.8349003,20.2992836 32.8546736,20.2102992 32.8546736,20.1191445 C32.8546736,20.0887596 32.8490241,20.0388415 32.8377251,19.9693904 L32.8377251,19.9693904 L32.6597658,19.8521914 L32.3801155,19.8521914 L32.3801155,17.8077218 C32.363167,17.7556334 32.3377442,17.7154819 32.3038472,17.6872673 C32.2699502,17.6590528 32.2219294,17.6319234 32.1597849,17.6058792 L32.1597849,17.6058792 L31.9479286,17.6058792 C31.8970831,17.6058792 31.8321139,17.6145606 31.7530208,17.6319234 C31.6739278,17.6840118 31.6174328,17.7426113 31.5835358,17.8077218 L31.5835358,17.8077218 L31.5835358,19.8521914 L29.7276747,19.8521914 L29.7276747,17.2347494 C29.6994272,17.1783202 29.6401074,17.1327429 29.5497154,17.0980173 L29.5497154,17.0980173 L29.2700651,17.0719731 C29.1683741,17.0719731 29.0779821,17.0915062 28.9988891,17.1305725 C28.9932396,17.1479354 28.9904148,17.1718092 28.9904148,17.2021941 C28.9904148,17.2238976 28.9932396,17.2607935 28.9988891,17.3128819 L28.9988891,17.3128819 L28.9988891,20.4902744 L31.5835358,20.4902744 L31.5835358,21.9682827 C31.7247733,22.0768002 31.8773099,22.1310589 32.0411454,22.1310589 Z M35.2444125,19.5852384 C35.306557,19.5895791 35.3588149,19.5733015 35.4011862,19.5364055 C35.4435574,19.4995096 35.4901658,19.4550174 35.5410113,19.402929 L35.5410113,19.402929 L35.5410113,18.5174262 C35.4901658,18.4349529 35.419547,18.3850349 35.329155,18.3676721 L35.329155,18.3676721 L34.117337,18.3676721 C34.0664915,18.3806942 34.0227079,18.4078235 33.9859861,18.4490602 C33.9492644,18.4902968 33.9224293,18.534789 33.9054808,18.5825367 L33.9054808,18.5825367 L33.9054808,19.3833958 C33.9167798,19.4050993 33.9450273,19.4398249 33.9902233,19.4875727 C34.0354193,19.5353203 34.0664915,19.5678756 34.08344,19.5852384 L34.08344,19.5852384 L35.2444125,19.5852384 Z M35.227464,21.877128 C35.3235055,21.8380617 35.3955367,21.8065916 35.4435574,21.7827178 C35.4915782,21.7588439 35.5240628,21.7230332 35.5410113,21.6752854 L35.5410113,21.6752854 L35.5410113,20.8223379 C35.4788668,20.7615681 35.396949,20.705139 35.295258,20.6530506 L35.295258,20.6530506 L34.2529251,20.6530506 C34.0777905,20.7007983 33.9619758,20.798464 33.9054808,20.9460479 L33.9054808,20.9460479 L33.9054808,21.6752854 C33.9337283,21.7273739 33.9648005,21.7642698 33.9986975,21.7859733 C34.0325945,21.8076768 34.0890895,21.8380617 34.1681826,21.877128 L34.1681826,21.877128 L35.227464,21.877128 Z M40.8797898,22.13757 C41.0549244,22.1332293 41.256894,22.1310589 41.4856988,22.1310589 C41.7145036,22.1310589 41.840205,22.1288886 41.862803,22.1245479 C41.885401,22.1202072 41.9235352,22.1050148 41.9772054,22.0789706 C42.0308757,22.0529264 42.0831336,22.0268822 42.1339791,22.0008379 C42.1452781,21.957431 42.1551647,21.9194498 42.163639,21.8868946 C42.1721132,21.8543393 42.1735256,21.8250396 42.1678761,21.7989954 C42.1791751,21.7642698 42.1848246,21.7382256 42.1848246,21.7208628 C42.1848246,21.6123453 42.1113811,21.5168499 41.9644941,21.4343766 L41.9644941,21.4343766 L38.7697012,21.4343766 L38.7697012,19.8261473 L41.0916461,19.8261473 C41.3289252,19.8261473 41.5436062,19.7794847 41.7356893,19.6861597 C41.9277723,19.5928346 42.0605356,19.4615285 42.1339791,19.2922412 L42.1339791,19.2922412 L42.1339791,17.4756582 C42.0831336,17.3454372 42.0068653,17.2390901 41.9051743,17.1566168 C41.8034833,17.0741435 41.6622457,16.9981812 41.4814617,16.92873 L41.4814617,16.92873 L38.3205659,16.92873 C38.1567303,16.92873 38.023967,16.9612853 37.922276,17.0263958 C37.820585,17.0915062 37.7697395,17.1761499 37.7697395,17.2803267 C37.7697395,17.2846674 37.7725643,17.3063709 37.7782138,17.3454372 C37.7838633,17.3845035 37.7951623,17.4192291 37.8121108,17.449614 L37.8121108,17.449614 L37.99007,17.5928571 L41.2526569,17.5928571 L41.2526569,19.142487 L38.8035982,19.142487 C38.5493707,19.1728719 38.3233906,19.2271307 38.1256581,19.3052633 C38.001369,19.4094401 37.9138018,19.5374907 37.8629563,19.6894152 L37.8629563,19.6894152 L37.8629563,22.1180369 C38.3092669,22.1267183 38.7513403,22.1321441 39.1891766,22.1343145 C39.3643112,22.1351826 39.5595579,22.1358771 39.7749169,22.136398 L40.8797898,22.13757 Z M46.4304247,22.1180369 L46.87956,21.746907 L46.87956,17.3649704 C46.698776,17.2173865 46.5179919,17.1110394 46.3372079,17.0459289 L46.3372079,17.0459289 L43.040724,17.0459289 C42.939033,17.0893359 42.8528781,17.1555316 42.7822593,17.2445159 C42.7116406,17.3335003 42.6763312,17.4235698 42.6763312,17.5147245 L42.6763312,17.5147245 L42.6763312,21.7208628 C42.7384757,21.8033361 42.8105068,21.8727873 42.8924246,21.9292164 C42.9743424,21.9856455 43.0943943,22.0485856 43.2525803,22.1180369 L43.2525803,22.1180369 L46.4304247,22.1180369 Z M46.0575576,21.4799539 L43.4898593,21.4799539 L43.4898593,17.7165671 L46.0575576,17.7165671 L46.0575576,21.4799539 Z" id="04:20" fill="#58D100" fill-rule="nonzero" transform="translate(35.159670, 19.533150) rotate(90.000000) translate(-35.159670, -19.533150) "></path>
                    </g>
                </g>
            </g>
        </g>
    </g>
</svg>